# xmcd CD database file
#
# Track frame offsets:
#	150
#	24296
#	41630
#	58057
#	83086
#	107922
#	129395
#	156875
#	183647
#	203950
#	226413
#	244145
#
# Disc length: 3530 seconds
#
# Revision: 0
# Processed by: cddbd v1.5.2PL0 Copyright (c) Steve Scherf et al.
# Submitted via: CDex 1.51
#
DISCID=9f0dc80c
DTITLE=Nitefall - Red Moon Rising
DYEAR=2009
DGENRE=Power Metal
TTITLE0=Die for Destiny
TTITLE1=Death Reigns Here Alone
TTITLE2=On the Edge
TTITLE3=Black Tomorrow
TTITLE4=Don't Break The Seal
TTITLE5=Desert Of Ice
TTITLE6=Race to the End
TTITLE7=The Quest
TTITLE8=Harvester of Souls
TTITLE9=Red Moon Rising
TTITLE10=Wings of Fate
TTITLE11=Time Warp
EXTD=YEAR: 2009
EXTT0=
EXTT1=
EXTT2=
EXTT3=
EXTT4=
EXTT5=
EXTT6=
EXTT7=
EXTT8=
EXTT9=
EXTT10=
EXTT11=
PLAYORDER=
